<?xml version="1.0" standalone="no"?>
<!DOCTYPE svg PUBLIC "-//W3C//DTD SVG 20010904//EN"
 "http://www.w3.org/TR/2001/REC-SVG-20010904/DTD/svg10.dtd">
<svg version="1.0" xmlns="http://www.w3.org/2000/svg"
 width="158.000000pt" height="158.000000pt" viewBox="0 0 158.000000 158.000000"
 preserveAspectRatio="xMidYMid meet">
<metadata>
Created by potrace 1.14, written by Peter Selinger 2001-2017
</metadata>
<g transform="translate(0.000000,158.000000) scale(0.100000,-0.100000)"
fill="#000000" stroke="none">
<path d="M585 1232 c-77 -8 -173 -53 -227 -104 -90 -85 -135 -223 -110 -335
l9 -41 -41 -18 c-91 -40 -155 -101 -151 -144 1 -8 3 -22 3 -31 3 -26 60 -76
121 -105 65 -31 261 -86 261 -73 0 5 -8 9 -17 9 -30 1 -177 46 -221 69 -53 27
-99 72 -108 106 -13 52 37 118 113 150 20 8 38 15 42 15 3 0 17 -21 30 -46 31
-58 118 -136 182 -163 60 -24 64 -19 7 10 -154 79 -225 282 -154 442 87 197
335 268 511 147 69 -47 70 -51 31 -109 -35 -52 -56 -107 -56 -148 0 -15 -13
-31 -39 -47 -135 -86 -158 -247 -50 -355 17 -17 41 -36 52 -42 12 -7 5 4 -15
22 -50 46 -78 103 -78 160 0 158 159 265 301 202 84 -38 129 -106 130 -196 1
-61 -17 -104 -65 -156 l-31 -34 31 21 c52 36 85 93 91 161 5 52 2 68 -21 115
-43 87 -136 142 -231 134 -55 -4 -57 8 -20 82 79 156 256 217 410 141 185 -91
228 -325 89 -482 -35 -39 -36 -41 -8 -19 17 14 42 40 54 58 28 39 34 40 50 3
37 -90 -68 -176 -272 -225 -49 -11 -88 -24 -88 -27 0 -7 31 -1 150 28 96 23
204 78 240 121 41 50 40 90 -4 137 -34 36 -34 36 -21 83 72 276 -244 508 -493
362 l-34 -20 -46 41 c-26 23 -63 49 -83 60 -58 29 -162 49 -224 41z"/>
<path d="M483 373 c9 -2 23 -2 30 0 6 3 -1 5 -18 5 -16 0 -22 -2 -12 -5z"/>
<path d="M1030 372 c0 -5 14 -7 30 -4 17 2 30 6 30 8 0 2 -13 4 -30 4 -16 0
-30 -4 -30 -8z"/>
<path d="M543 363 c9 -2 25 -2 35 0 9 3 1 5 -18 5 -19 0 -27 -2 -17 -5z"/>
<path d="M627 363 c-3 -5 6 -9 20 -10 19 -1 22 1 12 8 -17 11 -26 11 -32 2z"/>
<path d="M926 361 c6 -6 87 -1 94 6 2 2 -19 3 -48 2 -28 -1 -49 -5 -46 -8z"/>
<path d="M688 353 c7 -3 16 -2 19 1 4 3 -2 6 -13 5 -11 0 -14 -3 -6 -6z"/>
<path d="M758 353 c6 -2 18 -2 25 0 6 3 1 5 -13 5 -14 0 -19 -2 -12 -5z"/>
<path d="M838 353 c7 -3 16 -2 19 1 4 3 -2 6 -13 5 -11 0 -14 -3 -6 -6z"/>
</g>
</svg>
